#N canvas 7 39 2242 1377 12;
#X floatatom 583 102 5 0 0 0 - - - 0;
#X obj 473 180 == 0;
#X obj 473 231 line~;
#X msg 473 205 \$1 20;
#X obj 454 260 *~;
#X obj 523 231 line~;
#X msg 523 205 \$1 20;
#X obj 504 260 *~;
#X obj 523 180 == 1;
#X obj 453 102 inlet~;
#X obj 456 325 outlet~;
#X obj 466 355 outlet~;
#X obj 583 77 r clock-dest;
#X obj 496 395 outlet~;
#X obj 573 231 line~;
#X msg 573 205 \$1 20;
#X obj 554 260 *~;
#X obj 573 180 == 2;
#X connect 0 0 1 0;
#X connect 0 0 8 0;
#X connect 0 0 17 0;
#X connect 1 0 3 0;
#X connect 2 0 4 1;
#X connect 3 0 2 0;
#X connect 4 0 10 0;
#X connect 5 0 7 1;
#X connect 6 0 5 0;
#X connect 7 0 11 0;
#X connect 8 0 6 0;
#X connect 9 0 4 0;
#X connect 9 0 7 0;
#X connect 9 0 16 0;
#X connect 12 0 0 0;
#X connect 14 0 16 1;
#X connect 15 0 14 0;
#X connect 16 0 13 0;
#X connect 17 0 15 0;
