#N canvas 372 0 450 966 12;
#X obj 28 208 *~ 0.125;
#X obj 28 233 rzero~ -1;
#X obj 28 258 rzero~ -1;
#X obj 28 283 rzero~ -1;
#X obj 28 88 rpole~ 0.87467;
#X obj 28 62 *~ 0.12532;
#X obj 28 114 *~ 0.01668;
#X obj 28 141 cpole~ 0.9293 0.10812;
#X obj 28 177 cpole~ 0.9293 -0.10812;
#X obj 29 29 inlet~;
#X obj 29 313 outlet~;
#X connect 0 0 1 0;
#X connect 1 0 2 0;
#X connect 2 0 3 0;
#X connect 3 0 10 0;
#X connect 4 0 6 0;
#X connect 5 0 4 0;
#X connect 6 0 7 0;
#X connect 7 0 8 0;
#X connect 7 1 8 1;
#X connect 8 0 0 0;
#X connect 9 0 5 0;
