#N canvas -20 24 1920 976 12;
#X obj 387 398 vline~;
#X msg 387 371 1 \$1 \, 0 \$2 \$1;
#X obj 347 498 outlet~;
#X obj 433 96 inlet~;
#X obj 387 135 bang~;
#X obj 387 159 snapshot~;
#X obj 387 183 change;
#X obj 387 207 sel 1;
#X obj 387 233 bng 15 250 50 0 empty empty empty 17 7 0 10 #fcfcfc
#000000 #000000;
#X obj 378 326 list store;
#X msg 474 295 list \$1 \$2;
#X obj 473 269 pack;
#X obj 355 95 inlet~;
#X obj 349 464 *~;
#X obj 646 95 / 127;
#X obj 880 90 / 127;
#X obj 646 70 r \$0-attack;
#X obj 864 64 r \$0-decay;
#X obj 716 214 t b f;
#X obj 1287 205 knob-message-forwarder \$0;
#X obj 1287 169 inlet;
#X obj 132 195 hsl 128 64 0 127 0 0 \$0-attack \$0-attack-knob attack
-2 -8 0 10 #fcfcfc #000000 #000000 0 1;
#X obj 132 285 hsl 128 64 0 127 0 0 \$0-decay \$0-decay-knob decay
-2 -8 0 10 #fcfcfc #000000 #000000 0 1;
#X obj 706 34 inlet~;
#X obj 924 28 inlet~;
#X obj 1003 41 bang~;
#X obj 473 242 expr $f1*3000 + 0.01;
#X obj 646 120 sig~;
#X obj 646 145 +~;
#X obj 880 115 sig~;
#X obj 880 140 +~;
#X obj 645 193 snapshot~;
#X obj 880 194 snapshot~;
#X obj 699 257 expr $f1*3000 + 5;
#X obj 880 165 clip~ 0 1;
#X obj 645 168 clip~ 0 1;
#X connect 0 0 13 1;
#X connect 1 0 0 0;
#X connect 3 0 5 0;
#X connect 4 0 5 0;
#X connect 5 0 6 0;
#X connect 6 0 7 0;
#X connect 7 0 8 0;
#X connect 8 0 9 0;
#X connect 9 0 1 0;
#X connect 10 0 9 1;
#X connect 11 0 10 0;
#X connect 12 0 13 0;
#X connect 13 0 2 0;
#X connect 14 0 27 0;
#X connect 15 0 29 0;
#X connect 16 0 14 0;
#X connect 17 0 15 0;
#X connect 18 0 11 0;
#X connect 18 1 33 0;
#X connect 20 0 19 0;
#X connect 23 0 28 1;
#X connect 24 0 30 1;
#X connect 25 0 31 0;
#X connect 25 0 32 0;
#X connect 26 0 11 0;
#X connect 27 0 28 0;
#X connect 28 0 35 0;
#X connect 29 0 30 0;
#X connect 30 0 34 0;
#X connect 31 0 26 0;
#X connect 32 0 18 0;
#X connect 33 0 11 1;
#X connect 34 0 32 0;
#X connect 35 0 31 0;
#X coords 0 -1 1 1 200 400 1 100 100;
