#N canvas 7 39 2242 1377 12;
#X obj 149 171 hsl 128 64 0 127 0 0 \$0-cutoff \$0-cutoff-knob cutoff
-2 -8 0 10 #fcfcfc #000000 #000000 0 1;
#X obj 735 159 inlet;
#N canvas 7 39 1110 1374 filter 0;
#X obj 280 684 expr~ if($v1 <= 0.5 \, $v2 \, $v3);
#X obj 499 428 snapshot~;
#X obj 444 235 *~ 2;
#X obj 453 265 -~ 1;
#X obj 481 366 bang~;
#X obj 445 476 hip~;
#X obj 327 431 lop~;
#X obj 386 388 snapshot~;
#X obj 161 150 inlet~;
#X obj 93 757 outlet~;
#X obj 411 158 inlet~;
#X obj 344 312 expr~ abs($v1*10000)+1;
#X obj 93 733 expr~ if($v1>0.48 & $v1<0.52 \, $v2 \, $v3);
#X obj 447 339 expr~ abs($v1*5000)+1;
#X connect 0 0 12 2;
#X connect 1 0 5 1;
#X connect 2 0 3 0;
#X connect 2 0 11 0;
#X connect 3 0 13 0;
#X connect 4 0 1 0;
#X connect 4 0 7 0;
#X connect 5 0 0 2;
#X connect 6 0 0 1;
#X connect 7 0 6 1;
#X connect 8 0 6 0;
#X connect 8 0 5 0;
#X connect 8 0 12 1;
#X connect 10 0 0 0;
#X connect 10 0 2 0;
#X connect 10 0 12 0;
#X connect 11 0 7 0;
#X connect 12 0 9 0;
#X connect 13 0 1 0;
#X restore 487 396 pd filter;
#X obj 421 242 inlet~;
#X obj 487 421 outlet~;
#X obj 626 176 inlet~;
#X obj 549 205 / 127;
#X msg 533 244 \$1 30;
#X obj 536 271 line~;
#X obj 559 308 +~;
#X obj 523 158 r \$0-cutoff;
#X obj 734 202 knob-message-forwarder \$0;
#X obj 371 405 snapshot~;
#X obj 334 303 bang~;
#X floatatom 371 430 5 0 0 0 - - - 0;
#X obj 368 81 loadbang;
#X msg 368 106 60;
#X connect 1 0 11 0;
#X connect 2 0 4 0;
#X connect 3 0 2 0;
#X connect 3 0 12 0;
#X connect 5 0 9 1;
#X connect 6 0 7 0;
#X connect 7 0 8 0;
#X connect 8 0 9 0;
#X connect 9 0 2 1;
#X connect 10 0 6 0;
#X connect 12 0 14 0;
#X connect 13 0 12 0;
#X connect 15 0 16 0;
#X connect 16 0 0 0;
#X coords 0 -1 1 1 200 400 1 100 100;
