#N canvas 0 0 2242 1377 12;
#X obj 827 227 inlet;
#X obj 827 384 s;
#X obj 827 257 list split 1;
#X obj 827 285 list prepend;
#X obj 827 311 list split 1;
#X obj 867 342 makefilename \$1-%s-knob;
#X connect 0 0 2 0;
#X connect 2 0 3 0;
#X connect 2 1 3 1;
#X connect 3 0 4 0;
#X connect 4 0 1 0;
#X connect 4 1 5 0;
#X connect 5 0 1 1;
