#N canvas 4 24 1496 923 12;
#X obj 1186 267 inlet;
#X obj 1186 298 knob-message-forwarder \$0;
#X obj 338 797 outlet~;
#X obj 351 366 r \$0-wave;
#X obj 293 363 inlet~;
#X obj 350 404 / 127;
#X obj 349 456 line~;
#X msg 349 430 \$1 30;
#X obj 337 483 +~;
#N canvas 2263 39 1906 953 waveshapes~ 0;
#X obj 256 258 inlet~;
#X obj 435 257 inlet~;
#X obj 343 385 osc~ 440;
#X obj 645 548 expr~ $v2*(1-$v1) + $v3*$v1;
#X obj 352 545 -~ 1;
#X obj 107 620 expr~ if($v1<=1 \, $v2*(1-$v1) + $v3*$v1 \, $v4);
#X obj 642 520 -~ 2;
#X obj 256 410 *~ 3;
#X obj 353 579 expr~ if($v1<=1 \, $v2*(1-$v1) + $v3*$v1 \, $v4);
#X obj 107 644 outlet~;
#X text 238 226 waveselection (0-1);
#X text 423 225 frequency;
#X obj 899 355 noise~;
#X obj 871 440 samphold~;
#X obj 918 406 phasor~;
#N canvas 2263 39 1906 953 saw-sq 0;
#X obj 265 323 phasor~;
#X obj 265 418 expr~ $v1*2 - 1;
#X obj 265 289 inlet~;
#X obj 265 483 outlet~;
#X obj 545 349 block~ 64 1 16;
#X obj 385 417 expr~ ($v1 > 0.5)*2 -1;
#X obj 385 483 outlet~;
#X obj 475 483 outlet~;
#X connect 0 0 1 0;
#X connect 0 0 5 0;
#X connect 0 0 7 0;
#X connect 1 0 3 0;
#X connect 2 0 0 0;
#X connect 5 0 6 0;
#X restore 472 412 pd saw-sq;
#X obj 657 688 outlet~;
#X text 607 689 clock;
#X connect 0 0 7 0;
#X connect 1 0 2 0;
#X connect 1 0 14 0;
#X connect 1 0 15 0;
#X connect 2 0 5 1;
#X connect 3 0 8 3;
#X connect 4 0 8 0;
#X connect 5 0 9 0;
#X connect 6 0 3 0;
#X connect 7 0 4 0;
#X connect 7 0 5 0;
#X connect 7 0 6 0;
#X connect 8 0 5 3;
#X connect 12 0 13 0;
#X connect 13 0 3 2;
#X connect 14 0 13 1;
#X connect 15 0 8 1;
#X connect 15 0 5 2;
#X connect 15 1 3 1;
#X connect 15 1 8 2;
#X connect 15 2 16 0;
#X restore 337 519 pd waveshapes~;
#N canvas 7 39 1906 953 speed_control~ 0;
#X obj 322 514 line~;
#X msg 322 488 \$1 30;
#X obj 318 376 expr $f1/127;
#X obj 323 554 outlet~;
#X obj 320 428 log 2;
#X obj 320 404 + 1;
#X obj 318 351 r \$0-rate;
#X obj 321 458 expr $f1*15 + 0.001;
#X connect 0 0 3 0;
#X connect 1 0 0 0;
#X connect 2 0 5 0;
#X connect 4 0 7 0;
#X connect 5 0 4 0;
#X connect 6 0 2 0;
#X connect 7 0 1 0;
#X restore 433 368 pd speed_control~;
#X obj 955 839 outlet~;
#X obj 954 808 line~;
#X obj 993 746 del 5;
#X msg 993 770 0 0;
#X msg 954 771 1 0;
#X obj 954 561 snapshot~;
#X obj 971 532 bang~;
#X obj 954 586 change;
#X obj 954 673 sel 1;
#X obj 954 646 change;
#X obj 955 491 expr~ $v1*2 - 1;
#X obj 954 621 expr ($f1<0.0);
#X obj 999 705 s \$0-trig-btn;
#X obj 478 462 r \$0-output-amount;
#X obj 337 644 *~;
#X msg 478 537 \$1 20;
#X obj 478 562 line~;
#N canvas 2263 39 1906 953 speed_control_clock~ 0;
#X obj 322 514 line~;
#X msg 322 488 \$1 30;
#X obj 318 376 expr $f1/127;
#X obj 323 554 outlet~;
#X obj 320 428 log 2;
#X obj 320 404 + 1;
#X obj 318 351 r \$0-clock-rate;
#X obj 321 458 expr $f1*20 + 0.001;
#X connect 0 0 3 0;
#X connect 1 0 0 0;
#X connect 2 0 5 0;
#X connect 4 0 7 0;
#X connect 5 0 4 0;
#X connect 6 0 2 0;
#X connect 7 0 1 0;
#X restore 955 436 pd speed_control_clock~;
#X obj 955 461 phasor~;
#X obj 267 588 expr~ ($v1 + 1)/2;
#X obj 478 487 / 127;
#X obj 101 101 cnv 15 1024 148 empty empty empty 20 12 0 14 #feffc6
#404040 0;
#X obj 314 154 hsl 128 64 0 127 0 0 \$0-rate \$0-rate-knob rate -2
-8 0 10 #fcfcfc #000000 #000000 900 1;
#X obj 137 153 hsl 128 64 0 127 0 0 \$0-wave \$0-wave-knob wave -2
-8 0 10 #fcfcfc #000000 #000000 9300 1;
#X text 268 173 slow;
#X text 441 176 fast;
#X obj 482 153 hsl 128 64 0 127 0 0 \$0-output-amount \$0-output-amount-knob
output\ amount -2 -8 0 10 #fcfcfc #000000 #000000 0 1;
#X obj 634 126 vradio 16 1 0 6 lfo-mod-dest empty mod\ dest 0 -8 0
10 #fcfcfc #000000 #000000 0;
#X text 650 122 waveform;
#X text 650 154 srr;
#X text 650 171 cutoff;
#X text 650 187 attack;
#X text 650 201 decay;
#X obj 342 11 loadbang;
#X msg 342 36 10;
#X text 650 139 pitch;
#X obj 668 30 loadbang;
#X msg 668 55 0;
#X obj 866 100 cnv 15 256 148 empty empty empty 20 12 0 14 #ffe3c6
#404040 0;
#X obj 1030 217 bng 15 250 50 0 empty \$0-trig-btn trig\ out 17 7 0
10 #ff0400 #000000 #000000;
#X obj 880 157 hsl 128 64 0 127 0 0 \$0-clock-rate \$0-clock-rate-knob
clock\ rate -2 -8 0 10 #fcfcfc #000000 #000000 1000 1;
#X obj 1072 5 loadbang;
#X msg 1072 30 10;
#X obj 1031 136 vradio 16 1 0 3 clock-dest empty clock\ dest 0 -8 0
10 #fcfcfc #000000 #000000 0;
#X text 1050 131 none;
#X text 1050 148 trig;
#X text 1050 167 sequencer;
#X obj 1172 67 r \$0-clock-mode-knob;
#X obj 1172 96 > 0;
#X obj 1172 125 sel 1;
#X connect 0 0 1 0;
#X connect 3 0 5 0;
#X connect 4 0 8 0;
#X connect 5 0 7 0;
#X connect 6 0 8 1;
#X connect 7 0 6 0;
#X connect 8 0 9 0;
#X connect 9 0 25 0;
#X connect 10 0 9 1;
#X connect 12 0 11 0;
#X connect 13 0 14 0;
#X connect 14 0 12 0;
#X connect 15 0 12 0;
#X connect 16 0 18 0;
#X connect 17 0 16 0;
#X connect 18 0 22 0;
#X connect 19 0 15 0;
#X connect 19 0 13 0;
#X connect 19 0 23 0;
#X connect 20 0 19 0;
#X connect 21 0 16 0;
#X connect 22 0 20 0;
#X connect 24 0 31 0;
#X connect 25 0 2 0;
#X connect 26 0 27 0;
#X connect 27 0 25 1;
#X connect 28 0 29 0;
#X connect 29 0 21 0;
#X connect 31 0 26 0;
#X connect 44 0 45 0;
#X connect 45 0 33 0;
#X connect 47 0 48 0;
#X connect 48 0 38 0;
#X connect 52 0 53 0;
#X connect 53 0 51 0;
#X connect 58 0 59 0;
#X connect 59 0 60 0;
#X connect 60 0 54 0;
#X coords 0 -1 1 1 1025 150 1 100 100;
