#N canvas 7 39 2242 1377 12;
#X obj 917 465 sig~;
#X obj 773 127 / 127;
#X obj 773 151 > 0;
#X obj 1069 566 line~;
#X obj 998 593 outlet~;
#X obj 1064 625 outlet~;
#X obj 793 187 sel 1;
#X obj 1100 503 del 5;
#X obj 989 180 tgl 15 0 empty empty empty 17 7 0 10 #fcfcfc #000000
#000000 0 1;
#X obj 1001 215 metro 500;
#X msg 1100 527 0 0;
#X msg 1061 532 1 0;
#X obj 998 421 / 127;
#X obj 1059 170 loadbang;
#X obj 661 157 s \$0-note-knob;
#X obj 998 384 r \$0-note;
#X obj 1089 419 r \$0-trig;
#X obj 1194 252 inlet~;
#X obj 1231 309 snapshot~;
#X obj 1248 280 bang~;
#X obj 1228 362 change;
#X obj 1234 563 sel 1;
#X obj 1252 669 s \$0-trig-btn;
#X obj 1221 514 change;
#X obj 735 88 notein;
#X obj 879 150 bng 15 250 50 0 empty empty empty 17 7 0 10 #fcfcfc
#000000 #000000;
#X obj 793 212 s \$0-trig-btn;
#X obj 1148 454 bng 15 250 50 0 empty empty empty 17 7 0 10 #fcfcfc
#000000 #000000;
#X obj 1221 489 expr ($f1>0.0);
#X obj 421 91 loadbang;
#X msg 421 116 60;
#X obj 421 141 s \$0-note-knob;
#X obj 102 102 cnv 15 198 398 empty empty empty 20 12 0 14 #ffe3c6
#404040 0;
#X floatatom 148 187 5 0 0 2 note \$0-note-knob \$0-note 12;
#X obj 147 235 bng 128 250 50 0 \$0-trig \$0-trig-btn trig 17 7 0 10
#fcfcfc #000000 #000000;
#X connect 0 0 4 0;
#X connect 1 0 2 0;
#X connect 2 0 6 0;
#X connect 3 0 5 0;
#X connect 6 0 26 0;
#X connect 7 0 10 0;
#X connect 8 0 9 0;
#X connect 10 0 3 0;
#X connect 11 0 3 0;
#X connect 12 0 0 0;
#X connect 13 0 8 0;
#X connect 15 0 12 0;
#X connect 16 0 11 0;
#X connect 16 0 7 0;
#X connect 16 0 27 0;
#X connect 17 0 18 0;
#X connect 18 0 20 0;
#X connect 19 0 18 0;
#X connect 20 0 28 0;
#X connect 21 0 22 0;
#X connect 23 0 21 0;
#X connect 24 0 14 0;
#X connect 24 1 1 0;
#X connect 25 0 26 0;
#X connect 28 0 23 0;
#X connect 29 0 30 0;
#X connect 30 0 31 0;
#X coords 0 -1 1 1 200 400 1 100 100;
