#N canvas 7 39 2242 1377 12;
#X obj 443 430 dac~;
#X obj 452 390 *~ 0.5;
#X obj 450 351 clip~ -1 1;
#X obj 414 134 inlet~;
#X obj 217 223 vsl 32 256 0 127 0 0 \$0-vol \$0-vol-knob volume 0 -9
0 10 #fcfcfc #000000 #000000 0 1;
#X obj 479 133 inlet~;
#X text 484 99 volume;
#X obj 542 216 line~;
#X msg 542 190 \$1 30;
#X obj 541 139 r \$0-vol;
#X obj 519 250 +~;
#X obj 459 309 *~;
#X obj 541 163 / 127;
#N canvas 0 50 450 300 (subpatch) 0;
#X array scope 1000 float 0;
#X coords 0 1 999 -1 100 64 1 0 0;
#X restore 188 129 graph;
#X obj 520 430 tabwrite~ scope;
#X obj 653 295 loadbang;
#X obj 658 330 metro 50;
#X obj 724 297 bng 15 250 50 0 empty empty empty 17 7 0 10 #fcfcfc
#000000 #000000;
#X obj 931 342 knob-message-forwarder \$0;
#X obj 931 306 inlet;
#X connect 1 0 0 0;
#X connect 1 0 0 1;
#X connect 1 0 14 0;
#X connect 2 0 1 0;
#X connect 3 0 11 0;
#X connect 5 0 10 0;
#X connect 7 0 10 1;
#X connect 8 0 7 0;
#X connect 9 0 12 0;
#X connect 10 0 11 1;
#X connect 11 0 2 0;
#X connect 12 0 8 0;
#X connect 15 0 16 0;
#X connect 16 0 14 0;
#X connect 17 0 16 0;
#X connect 19 0 18 0;
#X coords 0 -1 1 1 200 400 1 100 100;
