#N canvas 7 39 2242 1377 12;
#X floatatom 583 102 5 0 0 0 - - - 0;
#X obj 473 180 == 0;
#X obj 473 231 line~;
#X msg 473 205 \$1 20;
#X obj 454 260 *~;
#X obj 523 231 line~;
#X msg 523 205 \$1 20;
#X obj 504 260 *~;
#X obj 573 231 line~;
#X msg 573 205 \$1 20;
#X obj 554 260 *~;
#X obj 623 231 line~;
#X msg 623 205 \$1 20;
#X obj 604 260 *~;
#X obj 673 231 line~;
#X msg 673 205 \$1 20;
#X obj 654 260 *~;
#X obj 723 231 line~;
#X msg 723 205 \$1 20;
#X obj 704 260 *~;
#X obj 523 180 == 1;
#X obj 573 180 == 2;
#X obj 623 180 == 3;
#X obj 673 180 == 4;
#X obj 723 180 == 5;
#X obj 453 102 inlet~;
#X obj 456 325 outlet~;
#X obj 466 355 outlet~;
#X obj 476 385 outlet~;
#X obj 486 415 outlet~;
#X obj 496 445 outlet~;
#X obj 506 475 outlet~;
#X obj 583 77 r seq-mod-dest;
#X connect 0 0 1 0;
#X connect 0 0 24 0;
#X connect 0 0 23 0;
#X connect 0 0 22 0;
#X connect 0 0 21 0;
#X connect 0 0 20 0;
#X connect 1 0 3 0;
#X connect 2 0 4 1;
#X connect 3 0 2 0;
#X connect 4 0 26 0;
#X connect 5 0 7 1;
#X connect 6 0 5 0;
#X connect 7 0 27 0;
#X connect 8 0 10 1;
#X connect 9 0 8 0;
#X connect 10 0 28 0;
#X connect 11 0 13 1;
#X connect 12 0 11 0;
#X connect 13 0 29 0;
#X connect 14 0 16 1;
#X connect 15 0 14 0;
#X connect 16 0 30 0;
#X connect 17 0 19 1;
#X connect 18 0 17 0;
#X connect 19 0 31 0;
#X connect 20 0 6 0;
#X connect 21 0 9 0;
#X connect 22 0 12 0;
#X connect 23 0 15 0;
#X connect 24 0 18 0;
#X connect 25 0 4 0;
#X connect 25 0 19 0;
#X connect 25 0 16 0;
#X connect 25 0 13 0;
#X connect 25 0 10 0;
#X connect 25 0 7 0;
#X connect 32 0 0 0;
