#N canvas 7 39 2242 1377 12;
#X obj 801 838 outlet~;
#X obj 734 77 inlet~;
#X text 691 77 clock;
#X obj 806 721 sig~;
#X obj 806 685 r \$0-step-cv-1;
#X obj 806 745 *~;
#X obj 733 203 i;
#X obj 767 213 + 1;
#X obj 767 237 % 4;
#X obj 733 180 sel 1;
#X obj 733 157 change;
#X obj 733 132 expr ($f1>0.0);
#X obj 733 109 snapshot~;
#X obj 812 36 bang~;
#X obj 916 721 sig~;
#X obj 916 745 *~;
#X obj 916 685 r \$0-step-cv-2;
#X obj 1026 721 sig~;
#X obj 1026 745 *~;
#X obj 1026 685 r \$0-step-cv-3;
#X obj 1136 721 sig~;
#X obj 1136 745 *~;
#X obj 1136 685 r \$0-step-cv-4;
#X obj 1073 952 outlet~;
#X obj 1072 921 line~;
#X obj 1111 859 del 5;
#X msg 1111 883 0 0;
#X msg 1072 884 1 0;
#X obj 998 827 r \$0-step-trig-1;
#X obj 1121 825 r \$0-step-trig-2;
#X obj 1245 822 r \$0-step-trig-3;
#X obj 1369 822 r \$0-step-trig-4;
#X obj 608 505 s;
#X obj 637 468 makefilename \$0-step-trig-btn-%d;
#X obj 685 324 + 1;
#X obj 685 348 t b f;
#X obj 807 801 /~ 127;
#X obj 101 101 cnv 15 398 398 empty empty empty 20 12 0 14 #feffc6
#404040 0;
#X obj 122 199 vsl 32 200 0 127 0 0 \$0-step-cv-1 empty 1 0 -9 0 10
#fcfcfc #000000 #000000 0 1;
#X obj 122 430 bng 32 250 50 0 \$0-step-trig-1 \$0-step-trig-btn-1
empty 17 7 0 10 #fcfcfc #000000 #000000;
#X obj 162 199 vsl 32 200 0 127 0 0 \$0-step-cv-2 empty 2 0 -9 0 10
#fcfcfc #000000 #000000 0 1;
#X obj 162 430 bng 32 250 50 0 \$0-step-trig-2 \$0-step-trig-btn-2
empty 17 7 0 10 #fcfcfc #000000 #000000;
#X obj 202 199 vsl 32 200 0 127 0 0 \$0-step-cv-3 empty 3 0 -9 0 10
#fcfcfc #000000 #000000 0 1;
#X obj 202 430 bng 32 250 50 0 \$0-step-trig-3 \$0-step-trig-btn-3
empty 17 7 0 10 #fcfcfc #000000 #000000;
#X obj 242 199 vsl 32 200 0 127 0 0 \$0-step-cv-4 empty 4 0 -9 0 10
#fcfcfc #000000 #000000 0 1;
#X obj 242 430 bng 32 250 50 0 \$0-step-trig-4 \$0-step-trig-btn-4
empty 17 7 0 10 #fcfcfc #000000 #000000;
#X obj 368 300 vradio 16 1 0 6 seq-mod-dest empty sequencer\\\ dest
0 -8 0 10 #fcfcfc #000000 #000000 0;
#X text 384 296 waveform;
#X text 384 328 srr;
#X text 384 345 cutoff;
#X text 384 361 attack;
#X text 384 375 decay;
#X text 384 313 pitch;
#X obj 390 -1 loadbang;
#X msg 582 49 1;
#X obj 780 530 r \$0-step-trig-1;
#X obj 903 528 r \$0-step-trig-2;
#X obj 1027 525 r \$0-step-trig-3;
#X obj 1151 525 r \$0-step-trig-4;
#X obj 886 633 unpack 1 0 0 0;
#X msg 788 577 1 0 0 0;
#X msg 911 570 0 1 0 0;
#X msg 1031 570 0 0 1 0;
#X msg 1151 569 0 0 0 1;
#X msg 119 60 33;
#X msg 175 62 36;
#X msg 226 66 38;
#X msg 275 59 39;
#X connect 1 0 12 0;
#X connect 3 0 5 0;
#X connect 4 0 3 0;
#X connect 5 0 36 0;
#X connect 6 0 7 0;
#X connect 6 0 34 0;
#X connect 7 0 8 0;
#X connect 8 0 6 1;
#X connect 9 0 6 0;
#X connect 10 0 9 0;
#X connect 11 0 10 0;
#X connect 12 0 11 0;
#X connect 13 0 12 0;
#X connect 14 0 15 0;
#X connect 15 0 36 0;
#X connect 16 0 14 0;
#X connect 17 0 18 0;
#X connect 18 0 36 0;
#X connect 19 0 17 0;
#X connect 20 0 21 0;
#X connect 21 0 36 0;
#X connect 22 0 20 0;
#X connect 24 0 23 0;
#X connect 25 0 26 0;
#X connect 26 0 24 0;
#X connect 27 0 24 0;
#X connect 28 0 27 0;
#X connect 28 0 25 0;
#X connect 29 0 25 0;
#X connect 29 0 27 0;
#X connect 30 0 27 0;
#X connect 30 0 25 0;
#X connect 31 0 25 0;
#X connect 31 0 27 0;
#X connect 33 0 32 1;
#X connect 34 0 35 0;
#X connect 35 0 32 0;
#X connect 35 1 33 0;
#X connect 36 0 0 0;
#X connect 53 0 54 0;
#X connect 53 0 64 0;
#X connect 53 0 67 0;
#X connect 53 0 66 0;
#X connect 53 0 65 0;
#X connect 54 0 46 0;
#X connect 55 0 60 0;
#X connect 56 0 61 0;
#X connect 57 0 62 0;
#X connect 58 0 63 0;
#X connect 59 0 5 1;
#X connect 59 1 15 1;
#X connect 59 2 18 1;
#X connect 59 3 21 1;
#X connect 60 0 59 0;
#X connect 61 0 59 0;
#X connect 62 0 59 0;
#X connect 63 0 59 0;
#X connect 64 0 38 0;
#X connect 65 0 40 0;
#X connect 66 0 42 0;
#X connect 67 0 44 0;
#X coords 0 -1 1 1 400 400 1 100 100;
