#N canvas 7 39 2242 1377 12;
#X obj 126 200 vsl 32 200 0 127 0 0 \$0-step-cv-1 empty 1 0 -9 0 10
#fcfcfc #000000 #000000 0 1;
#X obj 126 431 bng 32 250 50 0 \$0-step-trig-1 \$0-step-trig-btn-1
empty 17 7 0 10 #fcfcfc #000000 #000000;
#X obj 166 200 vsl 32 200 0 127 0 0 \$0-step-cv-2 empty 2 0 -9 0 10
#fcfcfc #000000 #000000 0 1;
#X obj 166 431 bng 32 250 50 0 \$0-step-trig-2 \$0-step-trig-btn-2
empty 17 7 0 10 #fcfcfc #000000 #000000;
#X obj 206 200 vsl 32 200 0 127 0 0 \$0-step-cv-3 empty 3 0 -9 0 10
#fcfcfc #000000 #000000 0 1;
#X obj 206 431 bng 32 250 50 0 \$0-step-trig-3 \$0-step-trig-btn-3
empty 17 7 0 10 #fcfcfc #000000 #000000;
#X obj 246 200 vsl 32 200 0 127 0 0 \$0-step-cv-4 empty 4 0 -9 0 10
#fcfcfc #000000 #000000 0 1;
#X obj 246 431 bng 32 250 50 0 \$0-step-trig-4 \$0-step-trig-btn-4
empty 17 7 0 10 #fcfcfc #000000 #000000;
#X obj 814 415 outlet~;
#X obj 734 77 inlet~;
#X text 691 77 clock;
#X obj 819 298 sig~;
#X obj 819 262 r \$0-step-cv-1;
#X obj 819 322 *~;
#X obj 733 203 i;
#X obj 767 213 + 1;
#X obj 767 237 % 4;
#X obj 733 180 sel 1;
#X obj 733 157 change;
#X obj 733 132 expr ($f1>0.0);
#X obj 733 109 snapshot~;
#X obj 812 36 bang~;
#X obj 865 296 == 0;
#X obj 929 298 sig~;
#X obj 929 322 *~;
#X obj 929 262 r \$0-step-cv-2;
#X obj 975 296 == 1;
#X obj 1039 298 sig~;
#X obj 1039 322 *~;
#X obj 1039 262 r \$0-step-cv-3;
#X obj 1149 298 sig~;
#X obj 1149 322 *~;
#X obj 1149 262 r \$0-step-cv-4;
#X obj 1195 296 == 3;
#X obj 1085 296 == 2;
#X obj 1086 529 outlet~;
#X obj 1085 498 line~;
#X obj 1124 436 del 5;
#X msg 1124 460 0 0;
#X msg 1085 461 1 0;
#X obj 1107 377 r \$0-step-trig-1;
#X obj 1134 402 r \$0-step-trig-2;
#X obj 1159 349 r \$0-step-trig-3;
#X obj 1232 376 r \$0-step-trig-4;
#X obj 608 505 s;
#X obj 637 468 makefilename \$0-step-trig-btn-%d;
#X obj 685 324 + 1;
#X obj 685 348 t b f;
#X obj 820 378 /~ 127;
#X obj 372 301 vradio 16 1 0 6 seq-mod-dest empty sequencer\ dest 0
-8 0 10 #fcfcfc #000000 #000000 0;
#X text 388 297 waveform;
#X text 388 329 srr;
#X text 388 346 cutoff;
#X text 388 362 attack;
#X text 388 376 decay;
#X text 388 314 pitch;
#X obj 586 25 loadbang;
#X msg 586 50 1;
#X connect 9 0 20 0;
#X connect 11 0 13 0;
#X connect 12 0 11 0;
#X connect 13 0 48 0;
#X connect 14 0 15 0;
#X connect 14 0 22 0;
#X connect 14 0 26 0;
#X connect 14 0 33 0;
#X connect 14 0 34 0;
#X connect 14 0 46 0;
#X connect 15 0 16 0;
#X connect 16 0 14 1;
#X connect 17 0 14 0;
#X connect 18 0 17 0;
#X connect 19 0 18 0;
#X connect 20 0 19 0;
#X connect 21 0 20 0;
#X connect 22 0 13 1;
#X connect 23 0 24 0;
#X connect 24 0 48 0;
#X connect 25 0 23 0;
#X connect 26 0 24 1;
#X connect 27 0 28 0;
#X connect 28 0 48 0;
#X connect 29 0 27 0;
#X connect 30 0 31 0;
#X connect 31 0 48 0;
#X connect 32 0 30 0;
#X connect 33 0 31 1;
#X connect 34 0 28 1;
#X connect 36 0 35 0;
#X connect 37 0 38 0;
#X connect 38 0 36 0;
#X connect 39 0 36 0;
#X connect 40 0 39 0;
#X connect 40 0 37 0;
#X connect 41 0 37 0;
#X connect 41 0 39 0;
#X connect 42 0 39 0;
#X connect 42 0 37 0;
#X connect 43 0 37 0;
#X connect 43 0 39 0;
#X connect 45 0 44 1;
#X connect 46 0 47 0;
#X connect 47 0 44 0;
#X connect 47 1 45 0;
#X connect 48 0 8 0;
#X connect 56 0 57 0;
#X connect 57 0 49 0;
#X coords 0 -1 1 1 400 400 1 100 100;
