#N canvas 7 39 2242 1377 12;
#X obj 116 325 wave;
#X obj 116 736 note;
#X obj 732 325 envelope;
#X obj 527 325 filter;
#X obj 2009 186 ctlin;
#X obj 320 326 waveshaping;
#X obj 939 325 output;
#X floatatom 2025 219 5 0 0 0 - - - 0;
#X obj 116 163 modulation;
#X obj 1662 147 controller_assignment wave 30;
#X obj 1672 177 controller_assignment rate 31;
#X obj 1672 207 controller_assignment wave 25;
#X obj 1682 237 controller_assignment speed 20;
#X obj 1692 267 controller_assignment srr 26;
#X obj 1702 297 controller_assignment cutoff 27;
#X obj 1712 327 controller_assignment attack 28;
#X obj 1732 387 controller_assignment vol 29;
#X obj 1722 357 controller_assignment decay 23;
#X obj 1662 117 controller_assignment output-amount 32;
#X obj 1662 87 controller_assignment clock-rate 33;
#X obj 227 22 lfo-patchbay, f 13;
#X obj 771 21 clock-patchbay;
#X obj 323 737 sequencer;
#X obj 473 14 seq-patchbay, f 13;
#X connect 0 0 5 0;
#X connect 1 0 0 1;
#X connect 1 1 2 1;
#X connect 2 0 6 0;
#X connect 3 0 2 0;
#X connect 4 1 7 0;
#X connect 5 0 3 0;
#X connect 8 0 20 0;
#X connect 8 1 21 0;
#X connect 9 0 8 1;
#X connect 10 0 8 1;
#X connect 11 0 0 2;
#X connect 12 0 0 2;
#X connect 13 0 5 2;
#X connect 14 0 3 2;
#X connect 15 0 2 4;
#X connect 16 0 6 2;
#X connect 17 0 2 4;
#X connect 18 0 8 1;
#X connect 19 0 8 1;
#X connect 20 0 0 0;
#X connect 20 1 0 1;
#X connect 20 2 5 1;
#X connect 20 3 3 1;
#X connect 20 4 2 2;
#X connect 20 5 2 3;
#X connect 21 1 1 0;
#X connect 21 2 22 0;
#X connect 22 0 23 0;
#X connect 22 1 2 1;
#X connect 23 0 0 0;
#X connect 23 1 0 1;
#X connect 23 2 5 1;
#X connect 23 3 3 1;
#X connect 23 4 2 2;
#X connect 23 5 2 3;
#X coords 0 -1 1 1 1050 1050 2 100 100;
