#N canvas 7 39 2242 1377 12;
#X obj 598 681 hsl 64 32 0 127 0 0 \$0-speed \$0-speed-knob speed -2
-8 0 10 #fcfcfc #000000 #000000 0 0;
#X obj 436 198 r \$0-wave;
#X obj 417 156 inlet~;
#X obj 512 154 inlet~;
#X obj 418 388 outlet~;
#X text 404 120 wave;
#X text 519 127 speed;
#X obj 436 228 / 127;
#X obj 435 280 line~;
#X msg 435 254 \$1 30;
#X obj 417 306 +~;
#N canvas 7 39 1906 953 waveshapes~ 0;
#X obj 256 258 inlet~;
#X obj 435 257 inlet~;
#X obj 343 385 osc~ 440;
#X obj 645 548 expr~ $v2*(1-$v1) + $v3*$v1;
#X obj 352 545 -~ 1;
#X obj 107 620 expr~ if($v1<=1 \, $v2*(1-$v1) + $v3*$v1 \, $v4);
#X obj 642 520 -~ 2;
#X obj 256 410 *~ 3;
#X obj 353 579 expr~ if($v1<=1 \, $v2*(1-$v1) + $v3*$v1 \, $v4);
#X obj 107 644 outlet~;
#X text 238 226 waveselection (0-1);
#X text 423 225 frequency;
#X obj 831 409 noise~;
#X obj 830 438 samphold~;
#X obj 890 407 phasor~;
#N canvas 15 6 1906 953 saw-sq 0;
#X obj 342 255 phasor~;
#X obj 265 348 expr~ $v1*2 - 1;
#X obj 342 221 inlet~;
#X obj 264 402 outlet~;
#X obj 410 345 expr~ ($v1 > 0.5)*2 -1;
#X obj 411 397 outlet~;
#X obj 601 270 block~ 1024 1 16;
#X obj 264 377 downsampling-filter;
#X obj 411 369 downsampling-filter;
#X connect 0 0 1 0;
#X connect 0 0 4 0;
#X connect 1 0 7 0;
#X connect 2 0 0 0;
#X connect 4 0 8 0;
#X connect 7 0 3 0;
#X connect 8 0 5 0;
#X restore 501 430 pd saw-sq;
#X connect 0 0 7 0;
#X connect 1 0 2 0;
#X connect 1 0 14 0;
#X connect 1 0 15 0;
#X connect 2 0 5 1;
#X connect 3 0 8 3;
#X connect 4 0 8 0;
#X connect 5 0 9 0;
#X connect 6 0 3 0;
#X connect 7 0 4 0;
#X connect 7 0 5 0;
#X connect 7 0 6 0;
#X connect 8 0 5 3;
#X connect 12 0 13 0;
#X connect 13 0 3 2;
#X connect 14 0 13 1;
#X connect 15 0 8 1;
#X connect 15 0 5 2;
#X connect 15 1 3 1;
#X connect 15 1 8 2;
#X restore 416 351 pd waveshapes~;
#X obj 674 142 inlet;
#N canvas 7 39 2242 1377 speed_control~ 0;
#X obj 298 117 r \$0-speed;
#X obj 298 230 line~;
#X msg 298 204 \$1 30;
#X obj 121 121 inlet~;
#X obj 122 389 outlet~;
#X obj 121 148 *~ 127;
#X obj 122 355 mtof~;
#X floatatom 542 316 5 0 0 0 - - - 0;
#X floatatom 540 192 5 0 0 0 - - - 0;
#X obj 540 239 exp 2;
#X obj 540 215 + 0;
#X obj 540 263 - 1;
#X obj 280 415 expr~ if($v1>0 \, $v1 \, $v2);
#X obj 122 303 +~;
#X obj 122 327 clip~ 0 127;
#X connect 0 0 2 0;
#X connect 1 0 13 1;
#X connect 2 0 1 0;
#X connect 3 0 5 0;
#X connect 5 0 13 0;
#X connect 6 0 4 0;
#X connect 8 0 10 0;
#X connect 9 0 11 0;
#X connect 10 0 9 0;
#X connect 11 0 7 0;
#X connect 13 0 14 0;
#X connect 14 0 6 0;
#X restore 513 191 pd speed_control~;
#X obj 674 190 knob-message-forwarder \$0;
#X obj 794 543 loadbang;
#X msg 794 568 60;
#X obj 101 101 cnv 15 198 398 empty empty empty 20 12 0 14 #e3c6ff
#404040 0;
#X obj 144 204 hsl 128 64 0 127 0 0 \$0-wave \$0-wave-knob waveform
-2 -8 0 10 #fcfcfc #000000 #000000 0 1;
#X connect 1 0 7 0;
#X connect 2 0 10 0;
#X connect 3 0 13 0;
#X connect 7 0 9 0;
#X connect 8 0 10 1;
#X connect 9 0 8 0;
#X connect 10 0 11 0;
#X connect 11 0 4 0;
#X connect 12 0 14 0;
#X connect 13 0 11 1;
#X connect 15 0 16 0;
#X coords 0 -1 1 1 200 400 1 100 100;
