#N canvas 7 39 1906 953 12;
#X obj 160 337 hsl 64 32 0 127 0 0 \$0-speed \$0-speed-knob speed -2
-8 0 10 #fcfcfc #000000 #000000 0 0;
#X obj 157 174 hsl 128 64 0 127 0 0 \$0-wave \$0-wave-knob waveform
-2 -8 0 10 #fcfcfc #000000 #000000 0 1;
#X obj 431 189 r \$0-wave;
#X obj 417 156 inlet~;
#X obj 512 154 inlet~;
#X obj 418 388 outlet~;
#X text 404 120 wave;
#X text 519 127 speed;
#X obj 430 227 / 127;
#X obj 429 279 line~;
#X msg 429 253 \$1 30;
#X obj 417 306 +~;
#N canvas 7 39 1906 953 waveshapes~ 1;
#X obj 256 258 inlet~;
#X obj 435 257 inlet~;
#X obj 343 385 osc~ 440;
#X obj 645 548 expr~ $v2*(1-$v1) + $v3*$v1;
#X obj 352 545 -~ 1;
#X obj 107 620 expr~ if($v1<=1 \, $v2*(1-$v1) + $v3*$v1 \, $v4);
#X obj 642 520 -~ 2;
#X obj 256 410 *~ 3;
#X obj 353 579 expr~ if($v1<=1 \, $v2*(1-$v1) + $v3*$v1 \, $v4);
#X obj 107 644 outlet~;
#X text 238 226 waveselection (0-1);
#X text 423 225 frequency;
#X obj 831 409 noise~;
#X obj 830 438 samphold~;
#X obj 890 407 phasor~;
#N canvas 7 39 1906 953 saw-sq 1;
#X obj 342 255 phasor~;
#X obj 265 348 expr~ $v1*2 - 1;
#X obj 342 221 inlet~;
#X obj 265 673 outlet~;
#X obj 389 349 expr~ ($v1 > 0.5)*2 -1;
#X obj 389 674 outlet~;
#X obj 601 270 block~ 1024 1 16;
#X obj 219 541 *~ 0.125;
#X obj 219 566 rzero~ -1;
#X obj 219 591 rzero~ -1;
#X obj 219 616 rzero~ -1;
#X obj 219 421 rpole~ 0.87467;
#X obj 219 395 *~ 0.12532;
#X obj 219 447 *~ 0.01668;
#X obj 219 474 cpole~ 0.9293 0.10812;
#X obj 219 510 cpole~ 0.9293 -0.10812;
#X obj 411 547 *~ 0.125;
#X obj 411 572 rzero~ -1;
#X obj 411 597 rzero~ -1;
#X obj 411 622 rzero~ -1;
#X obj 411 427 rpole~ 0.87467;
#X obj 411 401 *~ 0.12532;
#X obj 411 453 *~ 0.01668;
#X obj 411 480 cpole~ 0.9293 0.10812;
#X obj 411 516 cpole~ 0.9293 -0.10812;
#X connect 0 0 1 0;
#X connect 0 0 4 0;
#X connect 1 0 12 0;
#X connect 2 0 0 0;
#X connect 4 0 21 0;
#X connect 7 0 8 0;
#X connect 8 0 9 0;
#X connect 9 0 10 0;
#X connect 10 0 3 0;
#X connect 11 0 13 0;
#X connect 12 0 11 0;
#X connect 13 0 14 0;
#X connect 14 0 15 0;
#X connect 14 1 15 1;
#X connect 15 0 7 0;
#X connect 16 0 17 0;
#X connect 17 0 18 0;
#X connect 18 0 19 0;
#X connect 19 0 5 0;
#X connect 20 0 22 0;
#X connect 21 0 20 0;
#X connect 22 0 23 0;
#X connect 23 0 24 0;
#X connect 23 1 24 1;
#X connect 24 0 16 0;
#X restore 501 430 pd saw-sq;
#X connect 0 0 7 0;
#X connect 1 0 2 0;
#X connect 1 0 14 0;
#X connect 1 0 15 0;
#X connect 2 0 5 1;
#X connect 3 0 8 3;
#X connect 4 0 8 0;
#X connect 5 0 9 0;
#X connect 6 0 3 0;
#X connect 7 0 4 0;
#X connect 7 0 5 0;
#X connect 7 0 6 0;
#X connect 8 0 5 3;
#X connect 12 0 13 0;
#X connect 13 0 3 2;
#X connect 14 0 13 1;
#X connect 15 0 8 1;
#X connect 15 0 5 2;
#X connect 15 1 3 1;
#X connect 15 1 8 2;
#X restore 417 342 pd waveshapes~;
#X obj 674 142 inlet;
#N canvas 7 39 2242 1377 speed_control~ 0;
#X obj 318 351 r \$0-speed;
#X obj 322 514 line~;
#X msg 322 488 \$1 30;
#X obj 150 546 expr~ if($v1>0 \, $v1 \, $v2);
#X obj 318 376 expr $f1/127;
#X obj 148 463 inlet~;
#X obj 150 570 outlet~;
#X obj 148 490 *~ 127;
#X obj 148 515 mtof~;
#X obj 320 428 log 2;
#X obj 321 458 expr $f1*10000 + 20;
#X obj 320 404 + 1;
#X connect 0 0 4 0;
#X connect 1 0 3 1;
#X connect 2 0 1 0;
#X connect 3 0 6 0;
#X connect 4 0 11 0;
#X connect 5 0 7 0;
#X connect 7 0 8 0;
#X connect 8 0 3 0;
#X connect 9 0 10 0;
#X connect 10 0 2 0;
#X connect 11 0 9 0;
#X restore 513 191 pd speed_control~;
#X obj 671 184 knob-message-forwarder \$0;
#X connect 2 0 8 0;
#X connect 3 0 11 0;
#X connect 4 0 14 0;
#X connect 8 0 10 0;
#X connect 9 0 11 1;
#X connect 10 0 9 0;
#X connect 11 0 12 0;
#X connect 12 0 5 0;
#X connect 13 0 15 0;
#X connect 14 0 12 1;
#X coords 0 -1 1 1 200 400 1 100 100;
